<?xml version="1.0" standalone="no"?><!DOCTYPE svg PUBLIC "-//W3C//DTD SVG 1.1//EN" "http://www.w3.org/Graphics/SVG/1.1/DTD/svg11.dtd"><svg t="1669713649020" class="icon" viewBox="0 0 1024 1024" version="1.1" xmlns="http://www.w3.org/2000/svg" p-id="4743" xmlns:xlink="http://www.w3.org/1999/xlink" width="200" height="200"><path d="M597.333333 1024h-204.8c-10.24 0-17.066667-6.826667-17.066666-17.066667v-136.533333c0-10.24 6.826667-17.066667 17.066666-17.066667s17.066667 6.826667 17.066667 17.066667V989.866667h170.666667v-119.466667c0-10.24 6.826667-17.066667 17.066666-17.066667s17.066667 6.826667 17.066667 17.066667v136.533333c0 10.24-6.826667 17.066667-17.066667 17.066667zM494.933333 170.666667c-10.24 0-17.066667-6.826667-17.066666-17.066667v-136.533333c0-10.24 6.826667-17.066667 17.066666-17.066667s17.066667 6.826667 17.066667 17.066667v136.533333c0 10.24-6.826667 17.066667-17.066667 17.066667z" fill="" p-id="4744"></path><path d="M563.2 170.666667c-3.413333 0-6.826667 0-10.24-3.413334l-136.533333-102.4c-6.826667-6.826667-10.24-17.066667-3.413334-23.893333s17.066667-10.24 23.893334-3.413333l136.533333 102.4c6.826667 6.826667 10.24 17.066667 3.413333 23.893333-3.413333 3.413333-6.826667 6.826667-13.653333 6.826667z" fill="" p-id="4745"></path><path d="M426.666667 170.666667c-6.826667 0-10.24-3.413333-13.653334-6.826667-6.826667-6.826667-3.413333-17.066667 3.413334-23.893333l136.533333-102.4c6.826667-6.826667 17.066667-3.413333 23.893333 3.413333s3.413333 17.066667-3.413333 23.893333l-136.533333 102.4c-3.413333 3.413333-6.826667 3.413333-10.24 3.413334zM494.933333 750.933333c-47.786667 0-85.333333-37.546667-85.333333-85.333333s37.546667-85.333333 85.333333-85.333333 85.333333 37.546667 85.333334 85.333333-37.546667 85.333333-85.333334 85.333333z m0-136.533333c-27.306667 0-51.2 23.893333-51.2 51.2s23.893333 51.2 51.2 51.2 51.2-23.893333 51.2-51.2-23.893333-51.2-51.2-51.2zM341.333333 392.533333c-47.786667 0-85.333333-37.546667-85.333333-85.333333S293.546667 221.866667 341.333333 221.866667s85.333333 37.546667 85.333334 85.333333-37.546667 85.333333-85.333334 85.333333z m0-136.533333c-27.306667 0-51.2 23.893333-51.2 51.2s23.893333 51.2 51.2 51.2 51.2-23.893333 51.2-51.2-23.893333-51.2-51.2-51.2zM768 546.133333c-47.786667 0-85.333333-37.546667-85.333333-81.92 0-44.373333 37.546667-81.92 85.333333-81.92s85.333333 37.546667 85.333333 81.92c0 44.373333-37.546667 81.92-85.333333 81.92z m0-129.706666c-27.306667 0-51.2 20.48-51.2 47.786666s23.893333 47.786667 51.2 47.786667 51.2-20.48 51.2-47.786667-23.893333-47.786667-51.2-47.786666zM187.733333 750.933333C139.946667 750.933333 102.4 713.386667 102.4 665.6S139.946667 580.266667 187.733333 580.266667 273.066667 617.813333 273.066667 665.6 235.52 750.933333 187.733333 750.933333z m0-136.533333c-27.306667 0-51.2 23.893333-51.2 51.2S160.426667 716.8 187.733333 716.8 238.933333 692.906667 238.933333 665.6 215.04 614.4 187.733333 614.4z" fill="" p-id="4746"></path><path d="M768 887.466667h-614.4c-6.826667 0-13.653333-6.826667-17.066667-13.653334-3.413333-6.826667 0-13.653333 6.826667-20.48 92.16-54.613333 153.6-133.12 180.906667-174.08h-68.266667c-10.24 3.413333-17.066667-3.413333-17.066667-13.653333 0-13.653333-6.826667-27.306667-13.653333-34.133333-6.826667-6.826667-6.826667-17.066667 3.413333-23.893334 61.44-51.2 105.813333-102.4 129.706667-129.706666h-136.533333c-6.826667 0-17.066667-6.826667-17.066667-13.653334s3.413333-17.066667 10.24-20.48c17.066667-6.826667 47.786667-23.893333 102.4-81.92 3.413333-3.413333 6.826667-6.826667 13.653333-6.826666h13.653334c27.306667 0 51.2-23.893333 51.2-51.2 0-6.826667 0-13.653333-3.413334-17.066667-3.413333-6.826667 0-10.24 3.413334-17.066667l13.653333-20.48c30.72-40.96 61.44-81.92 68.266667-98.986666 3.413333-13.653333 27.306667-13.653333 30.72 0 17.066667 47.786667 122.88 211.626667 204.8 276.48 6.826667 3.413333 10.24 13.653333 3.413333 20.48-3.413333 6.826667-3.413333 10.24-3.413333 17.066666 0 10.24-6.826667 17.066667-17.066667 17.066667H614.4c37.546667 37.546667 112.64 109.226667 197.973333 174.08 6.826667 3.413333 6.826667 13.653333 6.826667 20.48s-6.826667 6.826667-13.653333 6.826667h-143.36c20.48 30.72 61.44 88.746667 126.293333 139.946666 6.826667 6.826667 10.24 13.653333 3.413333 23.893334-3.413333 6.826667-6.826667 13.653333-6.826666 23.893333 0 10.24-6.826667 17.066667-17.066667 17.066667zM211.626667 853.333333h542.72c0-3.413333 3.413333-6.826667 3.413333-13.653333-95.573333-78.506667-139.946667-163.84-139.946667-167.253333-3.413333-6.826667-3.413333-10.24 0-17.066667 3.413333-3.413333 10.24-6.826667 13.653334-6.826667h122.88c-109.226667-85.333333-191.146667-174.08-191.146667-177.493333-3.413333-3.413333-6.826667-13.653333-3.413333-17.066667 3.413333-6.826667 10.24-10.24 17.066666-10.24h109.226667c-71.68-61.44-157.013333-184.32-191.146667-252.586666-13.653333 20.48-34.133333 47.786667-58.026666 78.506666l-13.653334 17.066667c3.413333 6.826667 3.413333 13.653333 3.413334 20.48 0 47.786667-37.546667 85.333333-85.333334 85.333333h-3.413333c-20.48 20.48-37.546667 37.546667-54.613333 51.2h112.64c6.826667 0 13.653333 3.413333 13.653333 10.24 3.413333 6.826667 3.413333 13.653333 0 17.066667-3.413333 3.413333-54.613333 75.093333-146.773333 153.6 3.413333 6.826667 6.826667 17.066667 10.24 23.893333h88.746666c6.826667 0 10.24 3.413333 13.653334 10.24s3.413333 10.24 0 17.066667c-3.413333 3.413333-61.44 98.986667-163.84 177.493333z" fill="" p-id="4747"></path><path d="M836.266667 955.733333c-47.786667 0-85.333333-37.546667-85.333334-85.333333s37.546667-85.333333 85.333334-85.333333 85.333333 37.546667 85.333333 85.333333-37.546667 85.333333-85.333333 85.333333z m0-136.533333c-27.306667 0-51.2 23.893333-51.2 51.2s23.893333 51.2 51.2 51.2 51.2-23.893333 51.2-51.2-23.893333-51.2-51.2-51.2z" fill="" p-id="4748"></path></svg>